# xmcd
#
# Track frame offsets: 
#        150
#        29065
#        56075
#        87500
#        114645
#        141993
#        158817
#        190600
#        220397
#        242667
#        282824
#        312437
#
# Disc length: 4599 seconds
#
# Revision: 1
# Processed by: cddbd v1.5.2PL0 Copyright (c) Steve Scherf et al.
# Submitted via: ExactAudioCopyFreeDBPlugin 1.0
#
DISCID=b411f50c
DTITLE=Joey Negro - In the Beginning: Classic Productions and Remixes 
DTITLE='88-'93 [CD2)
DYEAR=2005
DGENRE=House
TTITLE0=X Girlfriend - You're The One
TTITLE1=Do What You Feel
TTITLE2=What Happened To The Music
TTITLE3=Doug Willis - I Got It
TTITLE4=What A Life
TTITLE5=Love Fantasy
TTITLE6=Agora - Samba Party
TTITLE7=Azucar - Feel The Love
TTITLE8=Feel It
TTITLE9=Masters of the Universe - Space Talk
TTITLE10=Cookie - Choose Me
TTITLE11=Life on Earth - Can't Give You Up
EXTD=
EXTT0=
EXTT1=
EXTT2=
EXTT3=
EXTT4=
EXTT5=
EXTT6=
EXTT7=
EXTT8=
EXTT9=
EXTT10=
EXTT11=
PLAYORDER=
